<svg xmlns="http://www.w3.org/2000/svg" xmlns:xlink="http://www.w3.org/1999/xlink" contentStyleType="text/css" data-diagram-type="CLASS" height="490px" preserveAspectRatio="none" style="width:341px;height:490px;background:#FFFFFF;" version="1.1" viewBox="0 0 341 490" width="341px" zoomAndPan="magnify"><defs/><g><!--class fetchOracle--><g class="entity" data-entity="fetchOracle" data-source-line="14" data-uid="ent0002" id="entity_fetchOracle"><rect fill="#FFFFFF" height="92.2959" rx="2.5" ry="2.5" style="stroke:#000000;stroke-width:0.5;" width="164.127" x="7" y="7"/><ellipse cx="56.6904" cy="23" fill="#ADD1B2" rx="11" ry="11" style="stroke:#181818;stroke-width:1;"/><path d="M54.3467,22.8438 Q54.3467,24.7188 54.9248,25.7344 Q55.5029,26.7344 56.6592,26.7344 Q58.0029,26.7344 58.6592,24.7188 L60.9248,25.1406 Q59.8154,28.6719 56.6436,28.6719 Q54.2998,28.6719 53.0811,27.1875 Q51.8623,25.7031 51.8623,22.8438 Q51.8623,17.125 56.5654,17.125 Q58.1123,17.125 59.1436,17.9375 Q60.1904,18.75 60.6904,20.3594 L58.4248,20.9063 Q58.1904,20.0313 57.7061,19.5469 Q57.2217,19.0469 56.5967,19.0469 Q54.3467,19.0469 54.3467,22.8438 Z " fill="#000000"/><text fill="#000000" font-family="sans-serif" font-size="11" lengthAdjust="spacing" textLength="56.2461" x="77.1904" y="26.9934">fetchOracle</text><line style="stroke:#000000;stroke-width:0.5;" x1="8" x2="170.127" y1="39" y2="39"/><text fill="#000000" font-family="sans-serif" font-size="14" lengthAdjust="spacing" textLength="152.127" x="13" y="76.2305">+requestNMSE(roundId)</text><text fill="#000000" font-family="sans-serif" font-size="14" lengthAdjust="spacing" textLength="57.1758" x="13" y="92.3291">+fulfill(...)</text><line style="stroke:#000000;stroke-width:1;" x1="8" x2="62.2153" y1="55.0493" y2="55.0493"/><text fill="#000000" font-family="sans-serif" font-size="14" lengthAdjust="spacing" textLength="53.6963" x="62.2153" y="59.6318">methods</text><line style="stroke:#000000;stroke-width:1;" x1="115.9116" x2="170.127" y1="55.0493" y2="55.0493"/></g><!--class performanceSubmission--><g class="entity" data-entity="performanceSubmission" data-source-line="20" data-uid="ent0003" id="entity_performanceSubmission"><rect fill="#FFFFFF" height="108.3945" rx="2.5" ry="2.5" style="stroke:#000000;stroke-width:0.5;" width="170.375" x="94" y="175"/><ellipse cx="117.8943" cy="191" fill="#ADD1B2" rx="11" ry="11" style="stroke:#181818;stroke-width:1;"/><path d="M115.5506,190.8438 Q115.5506,192.7188 116.1287,193.7344 Q116.7068,194.7344 117.8631,194.7344 Q119.2068,194.7344 119.8631,192.7188 L122.1287,193.1406 Q121.0193,196.6719 117.8474,196.6719 Q115.5037,196.6719 114.2849,195.1875 Q113.0662,193.7031 113.0662,190.8438 Q113.0662,185.125 117.7693,185.125 Q119.3162,185.125 120.3474,185.9375 Q121.3943,186.75 121.8943,188.3594 L119.6287,188.9063 Q119.3943,188.0313 118.9099,187.5469 Q118.4256,187.0469 117.8006,187.0469 Q115.5506,187.0469 115.5506,190.8438 Z " fill="#000000"/><text fill="#000000" font-family="sans-serif" font-size="11" lengthAdjust="spacing" textLength="118.6099" x="133.8708" y="194.9934">performanceSubmission</text><line style="stroke:#000000;stroke-width:0.5;" x1="95" x2="263.375" y1="207" y2="207"/><text fill="#000000" font-family="sans-serif" font-size="14" lengthAdjust="spacing" textLength="158.375" x="100" y="244.2305">+openRound(policyHash)</text><text fill="#000000" font-family="sans-serif" font-size="14" lengthAdjust="spacing" textLength="150.5479" x="100" y="260.3291">+submitPerformance(...)</text><text fill="#000000" font-family="sans-serif" font-size="14" lengthAdjust="spacing" textLength="138.9199" x="100" y="276.4277">+closeRound(roundId)</text><line style="stroke:#000000;stroke-width:1;" x1="95" x2="157.7842" y1="223.0493" y2="223.0493"/><text fill="#000000" font-family="sans-serif" font-size="14" lengthAdjust="spacing" textLength="42.8066" x="157.7842" y="227.6318">rounds</text><line style="stroke:#000000;stroke-width:1;" x1="200.5908" x2="263.375" y1="223.0493" y2="223.0493"/></g><!--class registrationClient--><g class="entity" data-entity="registrationClient" data-source-line="27" data-uid="ent0004" id="entity_registrationClient"><rect fill="#FFFFFF" height="76.1973" rx="2.5" ry="2.5" style="stroke:#000000;stroke-width:0.5;" width="128.3135" x="206" y="15"/><ellipse cx="227.1991" cy="31" fill="#ADD1B2" rx="11" ry="11" style="stroke:#181818;stroke-width:1;"/><path d="M224.8554,30.8438 Q224.8554,32.7188 225.4335,33.7344 Q226.0116,34.7344 227.1679,34.7344 Q228.5116,34.7344 229.1679,32.7188 L231.4335,33.1406 Q230.3241,36.6719 227.1523,36.6719 Q224.8085,36.6719 223.5898,35.1875 Q222.371,33.7031 222.371,30.8438 Q222.371,25.125 227.0741,25.125 Q228.621,25.125 229.6523,25.9375 Q230.6991,26.75 231.1991,28.3594 L228.9335,28.9063 Q228.6991,28.0313 228.2148,27.5469 Q227.7304,27.0469 227.1054,27.0469 Q224.8554,27.0469 224.8554,30.8438 Z " fill="#000000"/><text fill="#000000" font-family="sans-serif" font-size="11" lengthAdjust="spacing" textLength="82.5376" x="242.5767" y="34.9934">registrationClient</text><line style="stroke:#000000;stroke-width:0.5;" x1="207" x2="333.3135" y1="47" y2="47"/><text fill="#000000" font-family="sans-serif" font-size="14" lengthAdjust="spacing" textLength="116.3135" x="212" y="84.2305">+registerAsClient()</text><line style="stroke:#000000;stroke-width:1;" x1="207" x2="248.3706" y1="63.0493" y2="63.0493"/><text fill="#000000" font-family="sans-serif" font-size="14" lengthAdjust="spacing" textLength="43.5723" x="248.3706" y="67.6318">access</text><line style="stroke:#000000;stroke-width:1;" x1="291.9429" x2="333.3135" y1="63.0493" y2="63.0493"/></g><!--class reputationCalculation--><g class="entity" data-entity="reputationCalculation" data-source-line="32" data-uid="ent0005" id="entity_reputationCalculation"><rect fill="#FFFFFF" height="124.4932" rx="2.5" ry="2.5" style="stroke:#000000;stroke-width:0.5;" width="170.3545" x="94" y="359"/><ellipse cx="124.7542" cy="375" fill="#ADD1B2" rx="11" ry="11" style="stroke:#181818;stroke-width:1;"/><path d="M122.4104,374.8438 Q122.4104,376.7188 122.9885,377.7344 Q123.5667,378.7344 124.7229,378.7344 Q126.0667,378.7344 126.7229,376.7188 L128.9885,377.1406 Q127.8792,380.6719 124.7073,380.6719 Q122.3635,380.6719 121.1448,379.1875 Q119.926,377.7031 119.926,374.8438 Q119.926,369.125 124.6292,369.125 Q126.176,369.125 127.2073,369.9375 Q128.2542,370.75 128.7542,372.3594 L126.4885,372.9063 Q126.2542,372.0313 125.7698,371.5469 Q125.2854,371.0469 124.6604,371.0469 Q122.4104,371.0469 122.4104,374.8438 Z " fill="#000000"/><text fill="#000000" font-family="sans-serif" font-size="11" lengthAdjust="spacing" textLength="103.3452" x="142.2551" y="378.9934">reputationCalculation</text><line style="stroke:#000000;stroke-width:0.5;" x1="95" x2="263.3545" y1="391" y2="391"/><text fill="#000000" font-family="sans-serif" font-size="14" lengthAdjust="spacing" textLength="158.3545" x="100" y="428.2305">+initializeScores(roundId)</text><text fill="#000000" font-family="sans-serif" font-size="14" lengthAdjust="spacing" textLength="115.5615" x="100" y="444.3291">+updateScores(...)</text><text fill="#000000" font-family="sans-serif" font-size="14" lengthAdjust="spacing" textLength="149.8164" x="100" y="460.4277">+finalizeRound(roundId)</text><text fill="#000000" font-family="sans-serif" font-size="14" lengthAdjust="spacing" textLength="116.3477" x="100" y="476.5264">+getReputation(...)</text><line style="stroke:#000000;stroke-width:1;" x1="95" x2="148.043" y1="407.0493" y2="407.0493"/><text fill="#000000" font-family="sans-serif" font-size="14" lengthAdjust="spacing" textLength="62.2686" x="148.043" y="411.6318">reputation</text><line style="stroke:#000000;stroke-width:1;" x1="210.3115" x2="263.3545" y1="407.0493" y2="407.0493"/></g><!--link fetchOracle to performanceSubmission--><g class="link" data-entity-1="fetchOracle" data-entity-2="performanceSubmission" data-source-line="41" data-uid="lnk6" id="link_fetchOracle_performanceSubmission"><path codeLine="41" d="M112.41,99.26 C124.39,122.42 136.2838,145.4205 148.7938,169.6105" fill="none" id="fetchOracle-to-performanceSubmission" style="stroke:#000000;stroke-width:1;"/><polygon fill="#000000" points="151.55,174.94,150.9687,165.1083,149.2532,170.4988,143.8627,168.7832,151.55,174.94" style="stroke:#000000;stroke-width:1;"/><text fill="#000000" font-family="sans-serif" font-size="13" lengthAdjust="spacing" textLength="34.6646" x="135" y="142.1938">fulfill()</text></g><!--link registrationClient to performanceSubmission--><g class="link" data-entity-1="registrationClient" data-entity-2="performanceSubmission" data-source-line="42" data-uid="lnk7" id="link_registrationClient_performanceSubmission"><path codeLine="42" d="M250.48,91.33 C237.74,115.69 223.6789,142.5523 209.5589,169.5723" fill="none" id="registrationClient-to-performanceSubmission" style="stroke:#000000;stroke-width:1;"/><polygon fill="#000000" points="206.78,174.89,214.4935,168.7661,209.0957,170.4586,207.4032,165.0609,206.78,174.89" style="stroke:#000000;stroke-width:1;"/><text fill="#000000" font-family="sans-serif" font-size="13" lengthAdjust="spacing" textLength="101.8799" x="230" y="142.1938">registration check</text></g><!--link performanceSubmission to reputationCalculation--><g class="link" data-entity-1="performanceSubmission" data-entity-2="reputationCalculation" data-source-line="43" data-uid="lnk8" id="link_performanceSubmission_reputationCalculation"><path codeLine="43" d="M179,283.18 C179,306.67 179,328.43 179,352.78" fill="none" id="performanceSubmission-to-reputationCalculation" style="stroke:#000000;stroke-width:1;"/><polygon fill="#000000" points="179,358.78,183,349.78,179,353.78,175,349.78,179,358.78" style="stroke:#000000;stroke-width:1;"/><text fill="#000000" font-family="sans-serif" font-size="13" lengthAdjust="spacing" textLength="69.3608" x="180" y="326.1938">NMSE input</text></g><!--SRC=[VLF1Rjim3BthAuXUac18i5vx6D056rfWROVu2nIPZeNAeajIAB9X_px9hjscI7kp7XyV7v_a1VooHqeADjOWUWm-7enI3qgm9rNgeFQCJZr58uy-zfPj1ovO4VXh0BvRztXWIh7UKY26vzOh5fouHXwnVSYaZ5qpq_Cfz9EYLluFmkNbo-dUTWWNbOrI8VlcelIfijydnLj7SM1_DUQVCGlOKjTRfy0ORB4ehU_5ZEuQLDS-i7K11wVhDNIeBTMIF_Fv2-DJGj7xk-h7SjZWjbuLl4cXyI4iDvlDgemPvNhaXhYpqM6LzfqNoVCcuQ5zqgKUuwu0ovw2TySRA-qWBALFVxyAZIDonGKI77jc9_DaneCNvM71RV0OTHfhdKDvNQVGaAzb92rF9Fgaeu0DBerXpURduekIZrwz3JdeoX6ZdAIJ-jhgL9ZyDpuE_7ShvCe1TJVhpv4kO7ToOs_lQht-za7OLp1TpSgS2UMpnhTqS2tcntUUMaJEftK5vQL0_WMIcly0]--></g></svg>