<svg xmlns="http://www.w3.org/2000/svg" xmlns:xlink="http://www.w3.org/1999/xlink" contentStyleType="text/css" data-diagram-type="CLASS" height="490px" preserveAspectRatio="none" style="width:452px;height:490px;background:#FFFFFF;" version="1.1" viewBox="0 0 452 490" width="452px" zoomAndPan="magnify"><defs/><g><!--class fetchOracle--><g class="entity" data-entity="fetchOracle" data-source-line="11" data-uid="ent0002" id="entity_fetchOracle"><rect fill="#FFFFFF" height="92.2959" rx="2.5" ry="2.5" style="stroke:#000000;stroke-width:0.5;" width="164.127" x="7" y="23"/><ellipse cx="56.6904" cy="39" fill="#ADD1B2" rx="11" ry="11" style="stroke:#181818;stroke-width:1;"/><path d="M54.3467,38.8438 Q54.3467,40.7188 54.9248,41.7344 Q55.5029,42.7344 56.6592,42.7344 Q58.0029,42.7344 58.6592,40.7188 L60.9248,41.1406 Q59.8154,44.6719 56.6436,44.6719 Q54.2998,44.6719 53.0811,43.1875 Q51.8623,41.7031 51.8623,38.8438 Q51.8623,33.125 56.5654,33.125 Q58.1123,33.125 59.1436,33.9375 Q60.1904,34.75 60.6904,36.3594 L58.4248,36.9063 Q58.1904,36.0313 57.7061,35.5469 Q57.2217,35.0469 56.5967,35.0469 Q54.3467,35.0469 54.3467,38.8438 Z " fill="#000000"/><text fill="#000000" font-family="sans-serif" font-size="11" lengthAdjust="spacing" textLength="56.2461" x="77.1904" y="42.9934">fetchOracle</text><line style="stroke:#000000;stroke-width:0.5;" x1="8" x2="170.127" y1="55" y2="55"/><text fill="#000000" font-family="sans-serif" font-size="14" lengthAdjust="spacing" textLength="152.127" x="13" y="92.2305">+requestNMSE(roundId)</text><text fill="#000000" font-family="sans-serif" font-size="14" lengthAdjust="spacing" textLength="57.1758" x="13" y="108.3291">+fulfill(...)</text><line style="stroke:#000000;stroke-width:1;" x1="8" x2="62.2153" y1="71.0493" y2="71.0493"/><text fill="#000000" font-family="sans-serif" font-size="14" lengthAdjust="spacing" textLength="53.6963" x="62.2153" y="75.6318">methods</text><line style="stroke:#000000;stroke-width:1;" x1="115.9116" x2="170.127" y1="71.0493" y2="71.0493"/></g><!--class performanceSubmission--><g class="entity" data-entity="performanceSubmission" data-source-line="17" data-uid="ent0003" id="entity_performanceSubmission"><rect fill="#FFFFFF" height="108.3945" rx="2.5" ry="2.5" style="stroke:#000000;stroke-width:0.5;" width="333.0088" x="40.5" y="207"/><ellipse cx="143.4495" cy="223" fill="#ADD1B2" rx="11" ry="11" style="stroke:#181818;stroke-width:1;"/><path d="M141.1057,222.8438 Q141.1057,224.7188 141.6838,225.7344 Q142.262,226.7344 143.4182,226.7344 Q144.762,226.7344 145.4182,224.7188 L147.6838,225.1406 Q146.5745,228.6719 143.4026,228.6719 Q141.0588,228.6719 139.8401,227.1875 Q138.6213,225.7031 138.6213,222.8438 Q138.6213,217.125 143.3245,217.125 Q144.8713,217.125 145.9026,217.9375 Q146.9495,218.75 147.4495,220.3594 L145.1838,220.9063 Q144.9495,220.0313 144.4651,219.5469 Q143.9807,219.0469 143.3557,219.0469 Q141.1057,219.0469 141.1057,222.8438 Z " fill="#000000"/><text fill="#000000" font-family="sans-serif" font-size="11" lengthAdjust="spacing" textLength="118.6099" x="163.9495" y="226.9934">performanceSubmission</text><line style="stroke:#000000;stroke-width:0.5;" x1="41.5" x2="372.5088" y1="239" y2="239"/><text fill="#000000" font-family="sans-serif" font-size="14" lengthAdjust="spacing" textLength="321.0088" x="46.5" y="276.2305">+openRound(roundId, policyHash, selectPct, ttlSec)</text><text fill="#000000" font-family="sans-serif" font-size="14" lengthAdjust="spacing" textLength="263.375" x="46.5" y="292.3291">+submitNMSE(roundId, nmseFixed, scale)</text><text fill="#000000" font-family="sans-serif" font-size="14" lengthAdjust="spacing" textLength="138.9199" x="46.5" y="308.4277">+closeRound(roundId)</text><line style="stroke:#000000;stroke-width:1;" x1="41.5" x2="185.6011" y1="255.0493" y2="255.0493"/><text fill="#000000" font-family="sans-serif" font-size="14" lengthAdjust="spacing" textLength="42.8066" x="185.6011" y="259.6318">rounds</text><line style="stroke:#000000;stroke-width:1;" x1="228.4077" x2="372.5088" y1="255.0493" y2="255.0493"/></g><!--class registrationClient--><g class="entity" data-entity="registrationClient" data-source-line="24" data-uid="ent0004" id="entity_registrationClient"><rect fill="#FFFFFF" height="92.2959" rx="2.5" ry="2.5" style="stroke:#000000;stroke-width:0.5;" width="128.3135" x="143" y="391"/><ellipse cx="164.1991" cy="407" fill="#ADD1B2" rx="11" ry="11" style="stroke:#181818;stroke-width:1;"/><path d="M161.8554,406.8438 Q161.8554,408.7188 162.4335,409.7344 Q163.0116,410.7344 164.1679,410.7344 Q165.5116,410.7344 166.1679,408.7188 L168.4335,409.1406 Q167.3241,412.6719 164.1523,412.6719 Q161.8085,412.6719 160.5898,411.1875 Q159.371,409.7031 159.371,406.8438 Q159.371,401.125 164.0741,401.125 Q165.621,401.125 166.6523,401.9375 Q167.6991,402.75 168.1991,404.3594 L165.9335,404.9063 Q165.6991,404.0313 165.2148,403.5469 Q164.7304,403.0469 164.1054,403.0469 Q161.8554,403.0469 161.8554,406.8438 Z " fill="#000000"/><text fill="#000000" font-family="sans-serif" font-size="11" lengthAdjust="spacing" textLength="82.5376" x="179.5767" y="410.9934">registrationClient</text><line style="stroke:#000000;stroke-width:0.5;" x1="144" x2="270.3135" y1="423" y2="423"/><text fill="#000000" font-family="sans-serif" font-size="14" lengthAdjust="spacing" textLength="116.3135" x="149" y="460.2305">+registerAsClient()</text><text fill="#000000" font-family="sans-serif" font-size="14" lengthAdjust="spacing" textLength="91.4238" x="149" y="476.3291">+isClient(addr)</text><line style="stroke:#000000;stroke-width:1;" x1="144" x2="185.3706" y1="439.0493" y2="439.0493"/><text fill="#000000" font-family="sans-serif" font-size="14" lengthAdjust="spacing" textLength="43.5723" x="185.3706" y="443.6318">access</text><line style="stroke:#000000;stroke-width:1;" x1="228.9429" x2="270.3135" y1="439.0493" y2="439.0493"/></g><!--class reputationCalculation--><g class="entity" data-entity="reputationCalculation" data-source-line="30" data-uid="ent0005" id="entity_reputationCalculation"><rect fill="#FFFFFF" height="124.4932" rx="2.5" ry="2.5" style="stroke:#000000;stroke-width:0.5;" width="238.8506" x="206.5" y="7"/><ellipse cx="270.0027" cy="23" fill="#ADD1B2" rx="11" ry="11" style="stroke:#181818;stroke-width:1;"/><path d="M267.6589,22.8438 Q267.6589,24.7188 268.2371,25.7344 Q268.8152,26.7344 269.9714,26.7344 Q271.3152,26.7344 271.9714,24.7188 L274.2371,25.1406 Q273.1277,28.6719 269.9558,28.6719 Q267.6121,28.6719 266.3933,27.1875 Q265.1746,25.7031 265.1746,22.8438 Q265.1746,17.125 269.8777,17.125 Q271.4246,17.125 272.4558,17.9375 Q273.5027,18.75 274.0027,20.3594 L271.7371,20.9063 Q271.5027,20.0313 271.0183,19.5469 Q270.5339,19.0469 269.9089,19.0469 Q267.6589,19.0469 267.6589,22.8438 Z " fill="#000000"/><text fill="#000000" font-family="sans-serif" font-size="11" lengthAdjust="spacing" textLength="103.3452" x="290.5027" y="26.9934">reputationCalculation</text><line style="stroke:#000000;stroke-width:0.5;" x1="207.5" x2="444.3506" y1="39" y2="39"/><text fill="#000000" font-family="sans-serif" font-size="14" lengthAdjust="spacing" textLength="158.3545" x="212.5" y="76.2305">+initializeScores(roundId)</text><text fill="#000000" font-family="sans-serif" font-size="14" lengthAdjust="spacing" textLength="226.8506" x="212.5" y="92.3291">+updateScore(roundId, client, score)</text><text fill="#000000" font-family="sans-serif" font-size="14" lengthAdjust="spacing" textLength="149.8164" x="212.5" y="108.4277">+finalizeRound(roundId)</text><text fill="#000000" font-family="sans-serif" font-size="14" lengthAdjust="spacing" textLength="137.3613" x="212.5" y="124.5264">+getReputation(client)</text><line style="stroke:#000000;stroke-width:1;" x1="207.5" x2="294.791" y1="55.0493" y2="55.0493"/><text fill="#000000" font-family="sans-serif" font-size="14" lengthAdjust="spacing" textLength="62.2686" x="294.791" y="59.6318">reputation</text><line style="stroke:#000000;stroke-width:1;" x1="357.0596" x2="444.3506" y1="55.0493" y2="55.0493"/></g><!--link fetchOracle to performanceSubmission--><g class="link" data-entity-1="fetchOracle" data-entity-2="performanceSubmission" data-source-line="39" data-uid="lnk6" id="link_fetchOracle_performanceSubmission"><path codeLine="39" d="M116.96,115.03 C134.07,142.57 152.8738,172.8534 170.8338,201.7634" fill="none" id="fetchOracle-to-performanceSubmission" style="stroke:#000000;stroke-width:1;"/><polygon fill="#000000" points="174,206.86,172.6484,197.1043,171.3615,202.6128,165.853,201.3259,174,206.86" style="stroke:#000000;stroke-width:1;"/><text fill="#000000" font-family="sans-serif" font-size="13" lengthAdjust="spacing" textLength="95.3418" x="157" y="174.1938">submitNMSE(...)</text></g><!--link performanceSubmission to registrationClient--><g class="link" data-entity-1="performanceSubmission" data-entity-2="registrationClient" data-source-line="40" data-uid="lnk7" id="link_performanceSubmission_registrationClient"><path codeLine="40" d="M207,315.15 C207,339.34 207,361.66 207,384.8" fill="none" id="performanceSubmission-to-registrationClient" style="stroke:#000000;stroke-width:1;"/><polygon fill="#000000" points="207,390.8,211,381.8,207,385.8,203,381.8,207,390.8" style="stroke:#000000;stroke-width:1;"/><text fill="#000000" font-family="sans-serif" font-size="13" lengthAdjust="spacing" textLength="62.1182" x="208" y="358.1938">isClient(...)</text></g><!--link reputationCalculation to performanceSubmission--><g class="link" data-entity-1="reputationCalculation" data-entity-2="performanceSubmission" data-source-line="41" data-uid="lnk8" id="link_reputationCalculation_performanceSubmission"><path codeLine="41" d="M289.37,131.03 C280.2,146.11 270.31,162.19 261,177 C254.96,186.6 251.7104,191.7331 245.3604,201.5431" fill="none" id="reputationCalculation-to-performanceSubmission" style="stroke:#000000;stroke-width:1;stroke-dasharray:7,7;"/><polygon fill="#000000" points="242.1,206.58,250.3485,201.1983,244.817,202.3826,243.6326,196.8511,242.1,206.58" style="stroke:#000000;stroke-width:1;"/><text fill="#000000" font-family="sans-serif" font-size="13" lengthAdjust="spacing" textLength="157.5107" x="271" y="174.1938">read NMSE(roundId, client)</text></g><!--SRC=[TLB1Rjim3BtxAuXUvcA9qLvx6D0LAzf3koB-0aMcOwAov98qkgtOlq-IuoGUqXlrH3w-HrB301fW6rH33mqnMgNW2tabFnWsFLXdHE2Z0FXkxEkEm-YRk-02mtj7YWaFt21FsDR5f8ZTCeVt9NGVlDRq1-7wUlzwDZt2HMsyrCZKNgGwLQRjgFXeWy_PLyNVefX4jAYs-yd6Eio2rcleKRlGI0pZ-olZsuYYpq_rZp8BVMmk4zwEhYNdogggBezq0t8Rk3VUOZrkUnA9pcVYN3xpXW7z9W4pwmg6uCZ-VZ3IhK3GnR6zM5s1gglHvgQIE1TQLk1xmNlwXJ4KQnpcHEk2u8B-H2JZZaJPfAtSEKAliq9ZBShHUKf3lfKfgSpCDBzCq_22T1XreZJEZYw71-U7ppqtUL8oBYwZje5H5gCTXyRez76qQNFNv372qmR8PuR_RCQV7UhcqB6SAhFKBx31IPbqD0YKaIoT9yQwqqjOhxzziieREDb1tltvlCHmPiutS9XVBZu_jQhwl3sZQM1v0Nk3_m00]--></g></svg>